<?xml version="1.0" encoding="UTF-8"?>
<svg xmlns="http://www.w3.org/2000/svg" xmlns:xlink="http://www.w3.org/1999/xlink" width="192px" height="250px" viewBox="0 0 192 249" version="1.1">
<g id="surface1">
<path style="fill-rule:nonzero;fill:rgb(5.882353%,5.882353%,5.882353%);fill-opacity:1;stroke-width:1;stroke-linecap:butt;stroke-linejoin:miter;stroke:rgb(5.098039%,5.098039%,5.098039%);stroke-opacity:1;stroke-miterlimit:4;" d="M 40.000329 379.996623 L 200.001208 379.996623 L 200.001208 419.997091 L 40.000329 419.997091 Z M 40.000329 379.996623 " transform="matrix(0.000000000000000029,0.477927,-0.478803,0.000000000000000029,249.216958,134.058541)"/>
<path style="fill-rule:nonzero;fill:rgb(5.882353%,5.882353%,5.882353%);fill-opacity:1;stroke-width:1;stroke-linecap:butt;stroke-linejoin:miter;stroke:rgb(0%,0%,0%);stroke-opacity:1;stroke-miterlimit:4;" d="M 180.003845 199.999671 L 299.997091 199.999671 L 299.997091 219.99978 L 180.003845 219.99978 Z M 180.003845 199.999671 " transform="matrix(0.478803,0,0,0.477927,0.239401,0.238964)"/>
<path style="fill-rule:nonzero;fill:rgb(1.960784%,1.960784%,1.960784%);fill-opacity:1;stroke-width:1;stroke-linecap:butt;stroke-linejoin:miter;stroke:rgb(0%,0%,0%);stroke-opacity:1;stroke-miterlimit:4;" d="M -0.00233968 -0.00142759 L 39.998128 -0.00142759 L 39.998128 520.001428 L -0.00233968 520.001428 Z M -0.00233968 -0.00142759 " transform="matrix(0.478803,0,0,0.477927,0.239401,0.238964)"/>
<path style="fill-rule:nonzero;fill:rgb(3.921569%,3.921569%,3.921569%);fill-opacity:1;stroke-width:1;stroke-linecap:butt;stroke-linejoin:miter;stroke:rgb(0%,0%,0%);stroke-opacity:1;stroke-miterlimit:4;" d="M 20.001973 -0.00142759 L 140.003377 -0.00142759 L 140.003377 39.998792 L 20.001973 39.998792 Z M 20.001973 -0.00142759 " transform="matrix(0.478803,0,0,0.477927,0.239401,0.238964)"/>
<path style="fill-rule:nonzero;fill:rgb(3.921569%,3.921569%,3.921569%);fill-opacity:1;stroke-width:1;stroke-linecap:butt;stroke-linejoin:miter;stroke:rgb(0%,0%,0%);stroke-opacity:1;stroke-miterlimit:4;" d="M 20.001973 480.001208 L 140.003377 480.001208 L 140.003377 520.001428 L 20.001973 520.001428 Z M 20.001973 480.001208 " transform="matrix(0.478803,0,0,0.477927,0.239401,0.238964)"/>
<path style="fill-rule:nonzero;fill:rgb(3.921569%,3.921569%,3.921569%);fill-opacity:1;stroke-width:1;stroke-linecap:butt;stroke-linejoin:miter;stroke:rgb(0%,0%,0%);stroke-opacity:1;stroke-miterlimit:4;" d="M 259.996623 -0.00142759 L 379.998027 -0.00142759 L 379.998027 39.998792 L 259.996623 39.998792 Z M 259.996623 -0.00142759 " transform="matrix(0.478803,0,0,0.477927,0.239401,0.238964)"/>
<path style="fill-rule:nonzero;fill:rgb(1.960784%,1.960784%,1.960784%);fill-opacity:1;stroke-width:1;stroke-linecap:butt;stroke-linejoin:miter;stroke:rgb(0%,0%,0%);stroke-opacity:1;stroke-miterlimit:4;" d="M 360.001872 -0.00142759 L 400.00234 -0.00142759 L 400.00234 520.001428 L 360.001872 520.001428 Z M 360.001872 -0.00142759 " transform="matrix(0.478803,0,0,0.477927,0.239401,0.238964)"/>
<path style="fill-rule:nonzero;fill:rgb(3.921569%,3.921569%,3.921569%);fill-opacity:1;stroke-width:1;stroke-linecap:butt;stroke-linejoin:miter;stroke:rgb(0%,0%,0%);stroke-opacity:1;stroke-miterlimit:4;" d="M 259.996623 480.001208 L 379.998027 480.001208 L 379.998027 520.001428 L 259.996623 520.001428 Z M 259.996623 480.001208 " transform="matrix(0.478803,0,0,0.477927,0.239401,0.238964)"/>
<path style="fill-rule:nonzero;fill:rgb(5.882353%,5.882353%,5.882353%);fill-opacity:1;stroke-width:1;stroke-linecap:butt;stroke-linejoin:miter;stroke:rgb(5.098039%,5.098039%,5.098039%);stroke-opacity:1;stroke-miterlimit:4;" d="M 24.998792 114.996623 L 215.003922 114.996623 L 215.003922 154.997091 L 24.998792 154.997091 Z M 24.998792 114.996623 " transform="matrix(0.000000000000000029,0.477927,-0.478803,0.000000000000000029,122.334165,7.407869)"/>
<path style="fill-rule:nonzero;fill:rgb(5.882353%,5.882353%,5.882353%);fill-opacity:1;stroke-width:1;stroke-linecap:butt;stroke-linejoin:miter;stroke:rgb(5.098039%,5.098039%,5.098039%);stroke-opacity:1;stroke-miterlimit:4;" d="M 184.996078 365.002909 L 375.001208 365.002909 L 375.001208 405.003377 L 184.996078 405.003377 Z M 184.996078 365.002909 " transform="matrix(0.000000000000000029,0.477927,-0.478803,0.000000000000000029,318.643392,50.421305)"/>
<path style="fill-rule:nonzero;fill:rgb(5.882353%,5.882353%,5.882353%);fill-opacity:1;stroke-width:1;stroke-linecap:butt;stroke-linejoin:miter;stroke:rgb(5.098039%,5.098039%,5.098039%);stroke-opacity:1;stroke-miterlimit:4;" d="M 199.998792 100.002909 L 359.999671 100.002909 L 359.999671 140.003377 L 199.998792 140.003377 Z M 199.998792 100.002909 " transform="matrix(0.000000000000000029,0.477927,-0.478803,0.000000000000000029,191.760599,-76.229367)"/>
<path style="fill-rule:nonzero;fill:rgb(5.882353%,5.882353%,5.882353%);fill-opacity:1;stroke-width:1;stroke-linecap:butt;stroke-linejoin:miter;stroke:rgb(0%,0%,0%);stroke-opacity:1;stroke-miterlimit:4;" d="M 100.002909 300.00022 L 219.996155 300.00022 L 219.996155 320.000329 L 100.002909 320.000329 Z M 100.002909 300.00022 " transform="matrix(0.478803,0,0,0.477927,0.239401,0.238964)"/>
<path style="fill-rule:nonzero;fill:rgb(5.882353%,5.882353%,5.882353%);fill-opacity:1;stroke-width:1;stroke-linecap:butt;stroke-linejoin:miter;stroke:rgb(0%,0%,0%);stroke-opacity:1;stroke-miterlimit:4;" d="M 100.002909 230.003922 L 219.996155 230.003922 L 219.996155 250.004032 L 100.002909 250.004032 Z M 100.002909 230.003922 " transform="matrix(0.478803,0,0,0.477927,0.239401,0.238964)"/>
<path style="fill-rule:nonzero;fill:rgb(5.882353%,5.882353%,5.882353%);fill-opacity:1;stroke-width:1;stroke-linecap:butt;stroke-linejoin:miter;stroke:rgb(0%,0%,0%);stroke-opacity:1;stroke-miterlimit:4;" d="M 180.003845 269.995968 L 299.997091 269.995968 L 299.997091 289.996078 L 180.003845 289.996078 Z M 180.003845 269.995968 " transform="matrix(0.478803,0,0,0.477927,0.239401,0.238964)"/>
<path style="fill:none;stroke-width:1;stroke-linecap:butt;stroke-linejoin:miter;stroke:rgb(0%,0%,0%);stroke-opacity:1;stroke-miterlimit:10;" d="M 240.000468 289.996078 L 240.000468 276.371157 " transform="matrix(0.478803,0,0,0.477927,0.239401,0.238964)"/>
<path style="fill-rule:nonzero;fill:rgb(0%,0%,0%);fill-opacity:1;stroke-width:1;stroke-linecap:butt;stroke-linejoin:miter;stroke:rgb(0%,0%,0%);stroke-opacity:1;stroke-miterlimit:10;" d="M 240.000468 271.123886 L 243.500407 278.120247 L 240.000468 276.371157 L 236.500529 278.120247 Z M 240.000468 271.123886 " transform="matrix(0.478803,0,0,0.477927,0.239401,0.238964)"/>
</g>
</svg>
